<?xml version="1.0" encoding="UTF-8" standalone="no"?>
<!DOCTYPE svg PUBLIC "-//W3C//DTD SVG 1.1//EN"
 "http://www.w3.org/Graphics/SVG/1.1/DTD/svg11.dtd">
<!-- Generated by graphviz version 15.0.0 (20260523.1842)
 -->
<!-- Title: G Pages: 1 -->
<svg width="318pt" height="373pt"
 viewBox="0.00 0.00 318.00 373.00" xmlns="http://www.w3.org/2000/svg" xmlns:xlink="http://www.w3.org/1999/xlink">
<g id="graph0" class="graph" transform="scale(1 1) rotate(0) translate(4 368.5)">
<title>G</title>
<text xml:space="preserve" text-anchor="middle" x="155" y="-347.2" font-family="Times,serif" font-size="14.00">WebView Bridge Infrastructure</text>
<g id="clust1" class="cluster">
<title>cluster_editor_frontend</title>
<polygon fill="#f0f4f8" stroke="#d0d7de" points="10.25,-8 10.25,-247 302,-247 302,-8 10.25,-8"/>
<text xml:space="preserve" text-anchor="middle" x="156.12" y="-229.7" font-family="Times,serif" font-size="14.00">editor_frontend</text>
</g>
<g id="clust2" class="cluster">
<title>cluster_editor_frontend_callbacks</title>
<polygon fill="#f0f4f8" stroke="#d0d7de" points="1.5,-255 1.5,-332 158.5,-332 158.5,-255 1.5,-255"/>
<text xml:space="preserve" text-anchor="middle" x="80" y="-314.7" font-family="Times,serif" font-size="14.00">editor_frontend_callbacks</text>
</g>
<!-- anki_audio_quick_editor_editor_frontend_busy -->
<g id="node1" class="node">
<title>anki_audio_quick_editor_editor_frontend_busy</title>
<g id="a_node1"><a xlink:title="anki_audio_quick_editor.editor_frontend.busy">
<polygon fill="#85bbf0" stroke="black" points="131.75,-52 27.25,-52 27.25,-16 131.75,-16 131.75,-52"/>
<text xml:space="preserve" text-anchor="middle" x="79.5" y="-30.12" font-family="Helvetica,sans-Serif" font-size="10.00">editor_frontend.busy</text>
</a>
</g>
</g>
<!-- anki_audio_quick_editor_editor_frontend_playback -->
<g id="node2" class="node">
<title>anki_audio_quick_editor_editor_frontend_playback</title>
<g id="a_node2"><a xlink:title="anki_audio_quick_editor.editor_frontend.playback">
<polygon fill="#85bbf0" stroke="black" points="140.75,-106 18.25,-106 18.25,-70 140.75,-70 140.75,-106"/>
<text xml:space="preserve" text-anchor="middle" x="79.5" y="-84.12" font-family="Helvetica,sans-Serif" font-size="10.00">editor_frontend.playback</text>
</a>
</g>
</g>
<!-- anki_audio_quick_editor_editor_frontend_refresh -->
<g id="node3" class="node">
<title>anki_audio_quick_editor_editor_frontend_refresh</title>
<g id="a_node3"><a xlink:title="anki_audio_quick_editor.editor_frontend.refresh">
<polygon fill="#85bbf0" stroke="black" points="136.25,-160 22.75,-160 22.75,-124 136.25,-124 136.25,-160"/>
<text xml:space="preserve" text-anchor="middle" x="79.5" y="-138.12" font-family="Helvetica,sans-Serif" font-size="10.00">editor_frontend.refresh</text>
</a>
</g>
</g>
<!-- anki_audio_quick_editor_editor_frontend_status -->
<g id="node4" class="node">
<title>anki_audio_quick_editor_editor_frontend_status</title>
<g id="a_node4"><a xlink:title="anki_audio_quick_editor.editor_frontend.status">
<polygon fill="#85bbf0" stroke="black" points="134.75,-214 24.25,-214 24.25,-178 134.75,-178 134.75,-214"/>
<text xml:space="preserve" text-anchor="middle" x="79.5" y="-192.12" font-family="Helvetica,sans-Serif" font-size="10.00">editor_frontend.status</text>
</a>
</g>
</g>
<!-- anki_audio_quick_editor_editor_frontend_types -->
<g id="node5" class="node">
<title>anki_audio_quick_editor_editor_frontend_types</title>
<g id="a_node5"><a xlink:title="anki_audio_quick_editor.editor_frontend.types">
<polygon fill="#85bbf0" stroke="black" points="294,-214 186.5,-214 186.5,-178 294,-178 294,-214"/>
<text xml:space="preserve" text-anchor="middle" x="240.25" y="-192.12" font-family="Helvetica,sans-Serif" font-size="10.00">editor_frontend.types</text>
</a>
</g>
</g>
<!-- anki_audio_quick_editor_editor_frontend_status&#45;&gt;anki_audio_quick_editor_editor_frontend_types -->
<g id="edge1" class="edge">
<title>anki_audio_quick_editor_editor_frontend_status&#45;&gt;anki_audio_quick_editor_editor_frontend_types</title>
<path fill="none" stroke="#666666" d="M135.13,-196C147.9,-196 161.61,-196 174.76,-196"/>
<polygon fill="#666666" stroke="#666666" points="174.61,-199.5 184.61,-196 174.61,-192.5 174.61,-199.5"/>
</g>
<!-- anki_audio_quick_editor_editor_frontend_callbacks -->
<g id="node6" class="node">
<title>anki_audio_quick_editor_editor_frontend_callbacks</title>
<g id="a_node6"><a xlink:title="anki_audio_quick_editor.editor_frontend_callbacks">
<polygon fill="#85bbf0" stroke="black" points="143,-299 16,-299 16,-263 143,-263 143,-299"/>
<text xml:space="preserve" text-anchor="middle" x="79.5" y="-277.12" font-family="Helvetica,sans-Serif" font-size="10.00">editor_frontend_callbacks</text>
</a>
</g>
</g>
</g>
</svg>
